<svg width="450" height="550" viewBox="0 0 450 550" fill="none" xmlns="http://www.w3.org/2000/svg">
<path d="M357.024 94.6368C359.195 71.3089 385.57 60.3384 399.438 79.2221C446.666 143.533 463.849 238.881 437.927 334.75C396.772 482.574 280.839 557.992 188.392 549.329C174.871 548.549 161.523 545.572 150.663 542.387C137.411 538.5 130.44 524.694 133.67 511.266C138.38 491.68 143.764 471.425 150.071 451.322C172.23 380.697 203.183 320.817 247.442 294.06C314.27 253.657 340.845 190.936 352.154 132.961C353.982 123.593 355.612 109.81 357.024 94.6368ZM12.0728 215.014C49.3678 77.0801 162.741 -13.2968 273.115 1.60255C286.765 3.44521 295.676 16.1895 295.039 29.9489C294.761 35.9338 294.493 41.9101 294.191 47.7546C292.961 71.5186 291.116 95.8667 286.479 119.639C277.3 166.696 257.901 208.354 213.294 235.322C146.117 275.935 109.026 358.059 86.2937 430.515C85.1144 434.274 83.9667 438.031 82.8491 441.781C76.3219 463.685 49.1014 470.421 37.5229 450.715C0.373845 387.489 -11.3014 301.463 12.0728 215.014Z" fill="white"/>
</svg>
